<svg width="57" height="56" viewBox="0 0 57 56" fill="none" xmlns="http://www.w3.org/2000/svg">
<path d="M9.01885 7.86328C20.083 -2.8754 37.7741 -2.58672 48.4925 8.55609C49.7027 6.93952 50.7399 5.14974 51.4891 3.30223C55.0042 14.0409 57.1364 23.0475 56.3296 30.0334C55.9263 35.9224 53.6212 41.5804 49.8179 46.0837C39.9063 57.8616 22.2728 59.3627 10.5171 49.4323L10.2922 49.2319L10.2803 49.224C10.2434 49.1983 10.2071 49.1715 10.1714 49.1437C10.0641 49.06 9.96662 48.969 9.87905 48.8718L9.84751 48.8358L9.47985 48.5086C9.12129 48.2007 8.76273 47.8927 8.44464 47.5443L8.32734 47.4116C-2.39107 36.3265 -2.04531 18.6019 9.01885 7.86328ZM13.1679 45.4486C12.1306 44.6403 10.6324 44.7558 9.82561 45.795C9.11621 46.7088 9.11971 47.9798 9.83609 48.8228L9.84751 48.8358L10.2922 49.2319L10.3359 49.2617C11.3431 49.9252 12.6983 49.7881 13.4713 48.8502L13.5137 48.7972C14.3204 47.758 14.1475 46.2569 13.1679 45.4486ZM51.2009 6.18897C48.3197 12.2511 41.1741 16.8699 35.0081 18.3133C29.1879 19.6989 24.1168 18.5442 18.7576 20.6227C6.54094 25.2992 6.77144 39.8484 13.456 43.1392L13.8594 43.3702C13.8594 43.3702 18.6879 42.4083 23.4627 41.1381L23.8717 41.0285C25.7788 40.5135 27.655 39.9523 29.1879 39.3865C37.1402 36.442 45.8994 29.1674 48.7807 20.7381C47.2824 29.5138 39.7334 38.0008 32.1844 41.8691C28.1506 43.9475 25.0388 44.4094 18.4119 46.7188C17.6051 47.0075 16.9712 47.2961 16.9712 47.2961C17.0521 47.285 17.1329 47.2741 17.2136 47.2634L17.3746 47.2425L17.5348 47.2223C18.9984 47.0406 20.3135 46.9497 20.3135 46.9497C29.7065 46.4879 44.4587 49.6055 51.3162 40.4257C58.3465 31.0727 54.428 15.9461 51.2009 6.18897Z" fill="#6DB33F"/>
<path d="M13.1679 45.4486C14.1476 46.2569 14.3204 47.758 13.5137 48.7972C12.7069 49.8365 11.2086 49.9519 10.1714 49.1437C9.1341 48.3354 9.01885 46.8343 9.82561 45.795C10.6324 44.7558 12.1306 44.6403 13.1679 45.4486ZM51.2009 6.18897C54.428 15.9461 58.3465 31.0727 51.3162 40.4257C44.4587 49.6055 29.7065 46.4879 20.3135 46.9497C20.3135 46.9497 18.9984 47.0406 17.5348 47.2223L17.3746 47.2425C17.2408 47.2596 17.106 47.2775 16.9712 47.2961C16.9712 47.2961 17.6051 47.0075 18.4119 46.7188C25.0388 44.4094 28.1506 43.9475 32.1844 41.8691C39.7334 38.0008 47.2824 29.5138 48.7807 20.7381C45.8994 29.1674 37.1403 36.442 29.1879 39.3865C23.7134 41.4072 13.8594 43.3702 13.8594 43.3702L13.456 43.1392C6.77145 39.8484 6.54094 25.2992 18.7576 20.6227C24.1168 18.5442 29.1879 19.6989 35.0081 18.3133C41.1741 16.8699 48.3197 12.2511 51.2009 6.18897Z" fill="white"/>
</svg>
