<svg width="57" height="56" viewBox="0 0 57 56" fill="none" xmlns="http://www.w3.org/2000/svg">
<path d="M53.876 0H3.124C1.6748 0 0.5 1.1748 0.5 2.624V53.376C0.5 54.8252 1.6748 56 3.124 56H53.876C55.3252 56 56.5 54.8252 56.5 53.376V2.624C56.5 1.1748 55.3252 0 53.876 0Z" fill="#3178C6"/>
<path fill-rule="evenodd" clip-rule="evenodd" d="M32.99 43.518V49.654C34.1049 50.2043 35.293 50.5916 36.518 50.804C37.9336 51.0653 39.3705 51.1939 40.81 51.188C42.213 51.1947 43.6127 51.0532 44.986 50.766C46.219 50.5169 47.3954 50.0422 48.456 49.366C49.4407 48.7304 50.2522 47.8604 50.818 46.834C51.8312 44.7087 51.9649 42.2693 51.19 40.046C50.863 39.2146 50.3758 38.4555 49.756 37.812C49.0908 37.1277 48.3351 36.5376 47.51 36.058C46.5601 35.5016 45.5731 35.0112 44.556 34.59C43.756 34.258 43.036 33.9353 42.396 33.622C41.8276 33.3498 41.2836 33.0293 40.77 32.664C40.3678 32.382 40.0184 32.0313 39.738 31.628C39.4957 31.2618 39.3696 30.831 39.376 30.392C39.3707 29.9879 39.4833 29.5911 39.7 29.25C39.9354 28.8931 40.2494 28.5948 40.618 28.378C41.0685 28.1127 41.5588 27.9216 42.07 27.812C42.6976 27.6726 43.3391 27.6055 43.982 27.612C44.5227 27.6139 45.0626 27.6526 45.598 27.728C46.1762 27.8062 46.7482 27.9245 47.31 28.082C47.8814 28.2404 48.4403 28.4409 48.982 28.682C49.5077 28.9163 50.0105 29.1989 50.484 29.526V23.8C49.4982 23.427 48.4759 23.1589 47.434 23C46.1758 22.8169 44.9054 22.7307 43.634 22.742C42.2442 22.7345 40.8585 22.8923 39.506 23.212C38.2835 23.4914 37.1211 23.9879 36.074 24.678C35.1014 25.3259 34.2982 26.1976 33.732 27.22C33.1319 28.3553 32.835 29.6263 32.87 30.91C32.8257 32.6076 33.3848 34.2659 34.448 35.59C35.7524 37.0582 37.3972 38.1838 39.238 38.868C40.078 39.2147 40.8613 39.554 41.588 39.886C42.2436 40.1777 42.8738 40.5236 43.472 40.92C43.9545 41.2339 44.3782 41.6299 44.724 42.09C45.028 42.5074 45.1894 43.0117 45.184 43.528C45.1868 43.9149 45.0874 44.2957 44.896 44.632C44.6833 44.9934 44.3844 45.2964 44.026 45.514C43.5775 45.7874 43.0869 45.9847 42.574 46.098C41.9059 46.2474 41.2225 46.3179 40.538 46.308C39.1946 46.3055 37.862 46.0687 36.6 45.608C35.2816 45.1323 34.059 44.4244 32.99 43.518ZM22.682 28.242H30.682V23.188H8.37601V28.242H16.34V50.75H22.682V28.242Z" fill="white"/>
</svg>
